<svg xmlns="http://www.w3.org/2000/svg" width="30" height="30" viewBox="0 0 30 30">
    <defs>
        <clipPath id="a">
            <path style="fill:none" d="M0 0h22.503v25H0z"/>
        </clipPath>
    </defs>
    <path style="fill:transparent" d="M0 0h30v30H0z"/>
    <g style="clip-path:url(#a)">
        <path d="m228.089 1908.9-1.383-2.306a4.994 4.994 0 0 1-.711-2.57v-3.284a8.744 8.744 0 0 0-17.487 0v3.284a5 5 0 0 1-.711 2.569l-1.383 2.307a2.875 2.875 0 0 0 2.466 4.352h4.62a3.75 3.75 0 0 0 7.5 0h4.621a2.875 2.875 0 0 0 2.467-4.352zm-10.839 5.6a1.251 1.251 0 0 1-1.25-1.25h2.5a1.251 1.251 0 0 1-1.25 1.25zm8.7-3.94a.363.363 0 0 1-.327.19h-16.744a.374.374 0 0 1-.322-.566l1.383-2.309a7.506 7.506 0 0 0 1.068-3.854v-3.284a6.244 6.244 0 0 1 12.487 0v3.284a7.5 7.5 0 0 0 1.068 3.855l1.384 2.307a.364.364 0 0 1 .002.377z" transform="translate(-202.25 -1889.5)" style="fill:#113970" data-name="Repeat Grid 19"/>
    </g>
</svg>
