<svg id="comment-dots-Bold" xmlns="http://www.w3.org/2000/svg" width="28" height="28" viewBox="0 0 28 28">
  <rect id="Path" width="28" height="28" fill="rgba(255,255,255,0)"/>
  <path id="comment-dots-Bold_1_" d="M462.5,2037H450.833a5.84,5.84,0,0,0-5.833,5.833V2058a1.167,1.167,0,0,0,.72,1.078,1.15,1.15,0,0,0,.447.089,1.167,1.167,0,0,0,.825-.342l2.816-2.816a1.165,1.165,0,0,1,.826-.342H462.5a5.84,5.84,0,0,0,5.833-5.833v-7A5.84,5.84,0,0,0,462.5,2037Zm3.5,12.833a3.5,3.5,0,0,1-3.5,3.5H450.634a3.479,3.479,0,0,0-2.476,1.025l-.825.825v-12.35a3.5,3.5,0,0,1,3.5-3.5H462.5a3.5,3.5,0,0,1,3.5,3.5Zm-12.542-3.5a1.458,1.458,0,1,1-1.458-1.458A1.459,1.459,0,0,1,453.458,2046.333Zm4.667,0a1.458,1.458,0,1,1-1.458-1.458A1.459,1.459,0,0,1,458.125,2046.333Zm4.667,0a1.458,1.458,0,1,1-1.458-1.458A1.459,1.459,0,0,1,462.792,2046.333Z" transform="translate(-442.667 -2033.5)" fill="#113970"/>
</svg>
