<svg id="pen-Bold" xmlns="http://www.w3.org/2000/svg" width="28" height="28" viewBox="0 0 28 28">
  <rect id="Path" width="28" height="28" fill="rgba(255,255,255,0)"/>
  <path id="pen-Bold_1_" d="M802.767,1821.566a5.34,5.34,0,0,0-7.555,0l-12.289,12.289a3.477,3.477,0,0,0-.978,1.9l-.922,5.528a1.76,1.76,0,0,0,1.738,2.051,1.728,1.728,0,0,0,.289-.024l5.528-.922a3.479,3.479,0,0,0,1.9-.978l12.289-12.289a5.339,5.339,0,0,0,0-7.554Zm-13.938,18.2a1.158,1.158,0,0,1-.632.325l-4.739.79.79-4.739a1.157,1.157,0,0,1,.325-.632l9.224-9.224,4.256,4.256Zm12.288-12.29-1.415,1.415-4.256-4.256,1.415-1.415a3.009,3.009,0,1,1,4.256,4.256Z" transform="translate(-778.667 -1817.667)" fill="#113970"/>
</svg>
