<svg id="Filter" xmlns="http://www.w3.org/2000/svg" width="30" height="30" viewBox="0 0 30 30">
  <rect id="Path" width="30" height="30" fill="rgba(255,255,255,0)"/>
  <g id="Group_8741" data-name="Group 8741" transform="translate(-4538.099 -3160.499)">
    <path id="Path_50141" data-name="Path 50141" d="M4667.365,3171.917v.442q0,7.379,0,14.758a2.978,2.978,0,0,1-.012.418,1.115,1.115,0,0,1-2.218-.095c-.01-.162,0-.326,0-.488q0-7.31,0-14.619v-.411a4.329,4.329,0,0,1-3.051-5.123,4.282,4.282,0,0,1,8.356.092A4.332,4.332,0,0,1,4667.365,3171.917Zm-3.153-4.152a2.036,2.036,0,1,0,2.056-2.02A2.027,2.027,0,0,0,4664.211,3167.765Z" transform="translate(-112.873)" fill="#113970"/>
    <path id="Path_50142" data-name="Path 50142" d="M4787.213,3184.1c-2.126-.866-3.162-2.244-3.149-4.162a4.306,4.306,0,0,1,3.149-4.1v-.4q0-5.284,0-10.57a1.112,1.112,0,0,1,1.511-1.113,1.149,1.149,0,0,1,.72,1.129q0,2.111,0,4.221,0,3.209,0,6.418c0,.2.017.326.254.409a4.245,4.245,0,0,1-.033,8.061c-.065.023-.129.051-.219.087,0,1.074,0,2.154,0,3.233a2.1,2.1,0,0,1-.041.483,1.108,1.108,0,0,1-2.187-.233c-.012-1.011,0-2.023,0-3.035Zm-.923-4.188a2.037,2.037,0,1,0,2.082-1.994A2.029,2.029,0,0,0,4786.29,3179.913Z" transform="translate(-225.965 -0.168)" fill="#113970"/>
    <path id="Path_50143" data-name="Path 50143" d="M4545.48,3168.331c0,1.151,0,2.3,0,3.455a.34.34,0,0,0,.28.389,4.246,4.246,0,0,1,.025,8.026.384.384,0,0,0-.306.444c.008,2.292,0,4.583,0,6.875a1.083,1.083,0,0,1-.661,1.058,1.046,1.046,0,0,1-1.2-.193,1.194,1.194,0,0,1-.377-.973c0-2.245,0-4.49.01-6.735a.432.432,0,0,0-.342-.492,4.235,4.235,0,0,1-.024-7.97.472.472,0,0,0,.366-.546c-.014-2.257-.012-4.514-.006-6.771a1.117,1.117,0,1,1,2.23-.023C4545.482,3166.027,4545.48,3167.179,4545.48,3168.331Zm-1.108,9.9a2.036,2.036,0,1,0-2.037-2.042A2.034,2.034,0,0,0,4544.372,3178.231Z" transform="translate(0 -0.188)" fill="#113970"/>
  </g>
</svg>
