<svg xmlns="http://www.w3.org/2000/svg" width="149.566" height="133.582" viewBox="0 0 149.566 133.582">
  <g id="Img" transform="translate(-105 -166.3)">
    <g id="Group_8615" data-name="Group 8615" transform="translate(105.536 212.062)">
      <g id="Group_8614" data-name="Group 8614" transform="translate(0 17.255)">
        <path id="Path_44671" data-name="Path 44671" d="M430.244,1025.463a24.119,24.119,0,0,0-12.787-12.492c-5.878-2.38-12.627-1.514-18.818-2.311a17.5,17.5,0,0,1-12.467-7.361c-3.076-4.089-5.834-8.618-10.864-10.509a17.513,17.513,0,0,0-12.443.477c-7.279,2.87-12.776,8.972-17.406,15.051-4.227,5.55-7.675,11.628-15.494,11.826s-15.272-4.265-23.15-3.082a25.639,25.639,0,0,0-20.9,20.548,25.376,25.376,0,0,0,9.911,24.56H422.005C431.255,1052.359,436.109,1038.8,430.244,1025.463Z" transform="translate(-285.545 -991.86)" fill="#f7f0e3"/>
        <g id="Group_8613" data-name="Group 8613" transform="translate(4.037 1.951)">
          <path id="Path_44672" data-name="Path 44672" d="M554.23,1285.15h.347a26.627,26.627,0,0,0,5.5-9.433,24.782,24.782,0,0,0-.231-17.069,49.2,49.2,0,0,0-4.059-7.49,48.077,48.077,0,0,1-4.1-7.593,16.943,16.943,0,0,1-.948-3.509l-.261-.031a17.167,17.167,0,0,0,.973,3.633,48.262,48.262,0,0,0,4.116,7.634,48.984,48.984,0,0,1,4.039,7.45,24.528,24.528,0,0,1,.226,16.894A26.338,26.338,0,0,1,554.23,1285.15Z" transform="translate(-527.629 -1216.79)" fill="#fff"/>
          <path id="Path_44673" data-name="Path 44673" d="M836.257,1068.44c2.6.554,5.105,1.051,7.528,1.363.042-.08.082-.16.123-.241-2.443-.311-4.972-.811-7.6-1.371a61.357,61.357,0,0,0-12.619-1.774,22.4,22.4,0,0,0-7.846,1.3,16.022,16.022,0,0,0-2.776,1.35c-2.3-.979-4.605-2.047-6.892-3.22,1.66-1.25,3.337-2.474,5.032-3.658,12.583-8.786,24.2-13.767,35.414-15.181-.023-.082-.046-.164-.069-.246-11.249,1.425-22.887,6.419-35.49,15.22-1.731,1.209-3.444,2.46-5.137,3.737a85.008,85.008,0,0,1-7.573-4.4,65.961,65.961,0,0,1-14.4-12.639c17.959-2.015,36.243-4.553,51.174-14.532.567-.379,1.2-.826,1.846-1.333l-.217-.152c-.624.483-1.225.909-1.769,1.273-14.927,9.977-33.245,12.5-51.227,14.51a49.352,49.352,0,0,1-8.234-14c-3.167-8.39-3-16.624.459-22.589.15-.259.309-.514.472-.767-.145.066-.288.135-.431.2q-.133.216-.261.435c-3.5,6.032-3.671,14.345-.477,22.807a49.544,49.544,0,0,0,8.17,13.944q-1.561.175-3.12.346c-3.745.413-7.617.841-11.377,1.325-1.372.177-2.768.383-4.157.641a88.256,88.256,0,0,0-10.474-17.669c-.06.06-.122.119-.183.178a87.94,87.94,0,0,1,10.4,17.54c-6.057,1.155-11.939,3.327-15.079,8.381-2.933,4.72-2.93,11.245.008,19.393q.152.422.312.835h.272c-.116-.3-.232-.607-.346-.922-2.91-8.072-2.921-14.522-.031-19.173,3.1-4.994,8.952-7.137,14.976-8.278,1.051,2.223,2.066,4.465,3.075,6.692l.11.242c3.5,7.735,7.128,15.2,11.874,21.439h.317c-4.789-6.25-8.433-13.76-11.959-21.543l-.11-.242c-1-2.209-2.007-4.431-3.049-6.635,1.362-.252,2.731-.453,4.077-.627,3.758-.484,7.628-.911,11.372-1.324q1.64-.181,3.286-.364a66.132,66.132,0,0,0,14.565,12.817,85.175,85.175,0,0,0,7.488,4.359c-4.316,3.265-8.515,6.7-12.614,10.053q-2.129,1.742-4.3,3.507h.4q2.047-1.661,4.06-3.311c4.128-3.377,8.356-6.836,12.7-10.12,2.274,1.17,4.57,2.237,6.855,3.214a18.915,18.915,0,0,0-7.212,8.8c-.193.468-.361.94-.517,1.415h.267c.147-.442.3-.882.484-1.318a18.624,18.624,0,0,1,7.262-8.778,167.723,167.723,0,0,0,18.054,6.322l.2.06A34.887,34.887,0,0,1,838,1078.2l.172-.2a34.775,34.775,0,0,0-6.753-2.513l-.2-.06a168,168,0,0,1-17.859-6.241,15.718,15.718,0,0,1,2.576-1.234C822.516,1065.512,829.816,1067.068,836.257,1068.44Z" transform="translate(-704.443 -1011.084)" fill="#fff"/>
          <path id="Path_44674" data-name="Path 44674" d="M332.2,1334.723a20.327,20.327,0,0,1-1.372,13.592,23.4,23.4,0,0,1-5.511,7.118c.046.072.093.143.14.214a23.658,23.658,0,0,0,5.6-7.22,20.583,20.583,0,0,0,1.391-13.764,17.47,17.47,0,0,0-5.131-8.926l-.164.194A17.222,17.222,0,0,1,332.2,1334.723Z" transform="translate(-325.318 -1293.802)" fill="#fff"/>
        </g>
      </g>
      <path id="Path_44675" data-name="Path 44675" d="M817.654,823.862a9.484,9.484,0,0,1,1.982,9.572,15.361,15.361,0,0,1-6.875,8.02c-2.5,1.455-5.762,2.258-8.222.734a6.666,6.666,0,0,1-2.844-5.535,14.387,14.387,0,0,1,1.572-6.235,16.552,16.552,0,0,1,5.51-7.146C812.278,820.949,815.53,821.691,817.654,823.862Z" transform="translate(-749.308 -821.845)" fill="#f7f0e3"/>
    </g>
    <g id="Group_8616" data-name="Group 8616" transform="translate(114.372 166.3)">
      <path id="Path_44676" data-name="Path 44676" d="M508.231,379.131h-18.3v-8.177h18.3Zm-17.922-.381H507.85v-7.415H490.309Z" transform="translate(-478.021 -370.954)" fill="#e9ddca"/>
      <path id="Path_44677" data-name="Path 44677" d="M390.91,456.174h-18.3V448h18.3Zm-17.922-.381h17.542v-7.415H372.988Z" transform="translate(-372.607 -440.178)" fill="#e9ddca"/>
    </g>
    <g id="Group_8619" data-name="Group 8619" transform="translate(169.126 168.274)">
      <g id="Group_8617" data-name="Group 8617" transform="translate(0 0)">
        <path id="Path_44678" data-name="Path 44678" d="M1034.368,416.947a28.286,28.286,0,0,0-6.254-10.867,33.683,33.683,0,0,0-12.234-8.2q-7.749-3.239-19.691-3.24a77.037,77.037,0,0,0-19.417,2.569,57.7,57.7,0,0,0-17.181,7.342l6.321,17.353-3.388,2.744,4.913,1.444a72.146,72.146,0,0,1,13.255-5.53,45.828,45.828,0,0,1,12.7-1.713q6.719,0,10.174,3.24a10.339,10.339,0,0,1,3.452,7.82,15,15,0,0,1-3.543,9.818q-3.555,4.291-7.846,8.676-2.981,3.044-5.786,6.287a45.131,45.131,0,0,0-4.947,6.963,37.854,37.854,0,0,0-3.452,8.006,32.858,32.858,0,0,0-1.307,9.626c0,1.148.024,2.513.091,4.1.011.293.027.579.044.861h-4.645l5.068,3.427h24.644a16.37,16.37,0,0,1-.188-2.669v-2.29a16.555,16.555,0,0,1,1.307-6.386,33.029,33.029,0,0,1,3.27-6.007,44.374,44.374,0,0,1,4.388-5.43q2.425-2.579,4.667-4.866,2.981-3.044,6.156-6.479a50.93,50.93,0,0,0,5.6-7.242,40.689,40.689,0,0,0,4.011-8.3,29.208,29.208,0,0,0,1.592-9.818A39.265,39.265,0,0,0,1034.368,416.947Z" transform="translate(-954.771 -394.212)" fill="#d3dfff"/>
        <path id="Path_44679" data-name="Path 44679" d="M945.492,413.829a46.188,46.188,0,0,0-12.547,1.658,72.15,72.15,0,0,0-13.1,5.351l-7.754-20.847a57.66,57.66,0,0,1,16.979-7.105,77.651,77.651,0,0,1,19.189-2.487q11.8,0,19.46,3.135a33.333,33.333,0,0,1,12.09,7.934,27.242,27.242,0,0,1,6.18,10.517,37.273,37.273,0,0,1,1.754,10.883,27.737,27.737,0,0,1-1.574,9.5,39.049,39.049,0,0,1-3.964,8.03,49.439,49.439,0,0,1-5.538,7.009q-3.135,3.324-6.084,6.27-2.216,2.216-4.613,4.709a43.133,43.133,0,0,0-4.336,5.255,31.757,31.757,0,0,0-3.231,5.814,15.734,15.734,0,0,0-1.291,6.18v2.216a15.531,15.531,0,0,0,.186,2.583H932.945a25.839,25.839,0,0,1-.463-4.15c-.066-1.538-.09-2.859-.09-3.97A31.184,31.184,0,0,1,933.684,463a36.245,36.245,0,0,1,3.411-7.748,43.7,43.7,0,0,1,4.889-6.739q2.766-3.135,5.718-6.084,4.243-4.243,7.754-8.4a14.34,14.34,0,0,0,3.5-9.5,9.913,9.913,0,0,0-3.411-7.568Q952.132,413.829,945.492,413.829Z" transform="translate(-912.092 -390.399)" fill="#d3dfff"/>
      </g>
      <g id="Group_8618" data-name="Group 8618" transform="translate(19.285 103.466)">
        <path id="Path_44680" data-name="Path 44680" d="M1177.754,1425.174q0,6.665-4.315,10.29a14.936,14.936,0,0,1-19.521,0q-4.307-3.628-4.31-10.29t4.31-10.29a15,15,0,0,1,16.164-1.947A13.857,13.857,0,0,1,1177.754,1425.174Z" transform="translate(-1144.787 -1411.254)" fill="#d3dfff"/>
        <path id="Path_44681" data-name="Path 44681" d="M1130.254,1423.768q0,6.665-4.315,10.29a14.936,14.936,0,0,1-19.521,0q-4.308-3.628-4.31-10.29t4.31-10.29a14.936,14.936,0,0,1,19.521,0Q1130.254,1417.114,1130.254,1423.768Z" transform="translate(-1102.108 -1409.848)" fill="#d3dfff"/>
      </g>
    </g>
    <g id="Group_8638" data-name="Group 8638" transform="translate(113.231 194.042)">
      <g id="Group_8622" data-name="Group 8622" transform="translate(6.433 0)">
        <circle id="Ellipse_557" data-name="Ellipse 557" cx="2.654" cy="2.654" r="2.654" transform="matrix(0.184, -0.983, 0.983, 0.184, 18.23, 30.261)" fill="#d3dfff"/>
        <ellipse id="Ellipse_558" data-name="Ellipse 558" cx="1.493" cy="1.503" rx="1.493" ry="1.503" transform="translate(21.973 34.528) rotate(-79.386)" fill="#d3dfff"/>
        <g id="Group_8621" data-name="Group 8621" transform="translate(0)">
          <circle id="Ellipse_559" data-name="Ellipse 559" cx="10.45" cy="10.45" r="10.45" transform="translate(0 14.778) rotate(-45)" fill="#d3dfff"/>
          <g id="Group_8620" data-name="Group 8620" transform="translate(9.449 13.462)">
            <circle id="Ellipse_560" data-name="Ellipse 560" cx="1.317" cy="1.317" r="1.317" fill="#fff"/>
            <circle id="Ellipse_561" data-name="Ellipse 561" cx="1.317" cy="1.317" r="1.317" transform="translate(4.012)" fill="#fff"/>
            <circle id="Ellipse_562" data-name="Ellipse 562" cx="1.317" cy="1.317" r="1.317" transform="translate(8.025)" fill="#fff"/>
          </g>
        </g>
      </g>
      <g id="Group_8637" data-name="Group 8637" transform="translate(0 37.617)">
        <g id="Group_8625" data-name="Group 8625" transform="translate(6.12 41.568)">
          <g id="Group_8623" data-name="Group 8623" transform="translate(7.54 17.115)">
            <path id="Path_44682" data-name="Path 44682" d="M496.025,1597.144l.976,3.764a2.157,2.157,0,0,0,2.254,1.573c3.2-.218,9.853-1,13.671-3.816l-1.085-5.425c-5.249-.3-10.158,0-14.408,1.427A2.079,2.079,0,0,0,496.025,1597.144Z" transform="translate(-495.961 -1593.136)" fill="#102048"/>
            <path id="Path_44683" data-name="Path 44683" d="M544.146,1618.341a.127.127,0,0,1-.122-.093l-1.311-4.694a.127.127,0,0,1,.244-.068l1.311,4.694a.127.127,0,0,1-.122.161Z" transform="translate(-537.964 -1611.337)" fill="#fff"/>
            <path id="Path_44684" data-name="Path 44684" d="M572.062,1612.09a.127.127,0,0,1-.122-.093l-1.311-4.694a.127.127,0,0,1,.244-.068l1.311,4.694a.127.127,0,0,1-.122.161Z" transform="translate(-563.047 -1605.72)" fill="#fff"/>
          </g>
          <path id="Path_44685" data-name="Path 44685" d="M509.21,1425.274l-12.2,3.621,9.06,12.414,13.007,1.034,17.941-7.586L530.2,1424.5Z" transform="translate(-489.364 -1424.498)" fill="#fbc343"/>
          <path id="Path_44686" data-name="Path 44686" d="M636.225,1434.855c26.791-7.931,31.1,15.747-10.7,20.058a20.225,20.225,0,0,1-3.887-6.954l22.075-10.2Z" transform="translate(-601.338 -1432.355)" fill="#fbc343"/>
          <path id="Path_44687" data-name="Path 44687" d="M716.776,1605.765a11.59,11.59,0,0,1-2.454-1.194l-4.306,1.35.987,4.684,4.473.909A9.616,9.616,0,0,0,716.776,1605.765Z" transform="translate(-680.752 -1586.295)" fill="#f9b384"/>
          <path id="Path_44688" data-name="Path 44688" d="M620.882,1479.542l-.191-.329c4.605-2.676,16.4-9.106,26.452-11l.071.374C637.221,1470.469,625.47,1476.875,620.882,1479.542Z" transform="translate(-600.492 -1463.774)" fill="#e49b31"/>
          <path id="Path_44689" data-name="Path 44689" d="M441.513,1426.673c-24.937-4.741-31.4,19.224,10.406,23.534a15.185,15.185,0,0,0,3.319-6.034,190.334,190.334,0,0,0-21.469-12.27Z" transform="translate(-421.667 -1425.897)" fill="#fbc343"/>
          <path id="Path_44690" data-name="Path 44690" d="M538.326,1477.452c-1.186-.755-2.422-1.553-3.731-2.4-6.569-4.242-14.015-9.049-20.341-11.79l.151-.349c6.355,2.754,13.815,7.57,20.4,11.82,1.308.845,2.544,1.642,3.729,2.4Z" transform="translate(-504.857 -1459.016)" fill="#e49b31"/>
          <path id="Path_44691" data-name="Path 44691" d="M433.988,1517.519l-.333-.184a7,7,0,0,1,4.456-3.4l.1.367A6.545,6.545,0,0,0,433.988,1517.519Z" transform="translate(-432.438 -1504.861)" fill="#e49b31"/>
          <path id="Path_44692" data-name="Path 44692" d="M912.369,1503.3a6.546,6.546,0,0,0-4.225-3.214l.1-.367a7,7,0,0,1,4.456,3.4Z" transform="translate(-858.771 -1492.088)" fill="#e49b31"/>
          <path id="Path_44693" data-name="Path 44693" d="M694.268,1598.613l-.278-.26a14.257,14.257,0,0,0,3.746-6.9l.372.078A14.624,14.624,0,0,1,694.268,1598.613Z" transform="translate(-666.351 -1574.513)" fill="#e49b31"/>
          <g id="Group_8624" data-name="Group 8624" transform="translate(34.725 17.462)">
            <path id="Path_44694" data-name="Path 44694" d="M777.549,1597.163c-3.2-1.974-9.389,1.437-10.944,1.609a3.738,3.738,0,0,1-1.493-.214,9.617,9.617,0,0,1-1.3,5.749l.76.154a22.368,22.368,0,0,0,10.824.8A4.5,4.5,0,0,0,777.549,1597.163Z" transform="translate(-763.812 -1596.551)" fill="#102048"/>
            <path id="Path_44695" data-name="Path 44695" d="M850.072,1617.348a.123.123,0,0,1-.038-.006.126.126,0,0,1-.083-.159,6.5,6.5,0,0,0-.554-5.155.127.127,0,0,1,.209-.145,6.775,6.775,0,0,1,.588,5.375A.127.127,0,0,1,850.072,1617.348Z" transform="translate(-840.691 -1610.278)" fill="#fff"/>
            <path id="Path_44696" data-name="Path 44696" d="M825.385,1622.036a.13.13,0,0,1-.038-.006.127.127,0,0,1-.083-.159,6.5,6.5,0,0,0-.554-5.154.127.127,0,0,1,.209-.145,6.774,6.774,0,0,1,.588,5.375A.127.127,0,0,1,825.385,1622.036Z" transform="translate(-818.509 -1614.491)" fill="#fff"/>
          </g>
        </g>
        <g id="Group_8633" data-name="Group 8633">
          <g id="Group_8627" data-name="Group 8627" transform="translate(14.138 0.224)">
            <path id="Path_44697" data-name="Path 44697" d="M508.087,1028.356s6.28-5.341,6.048-6.355c-.166-.725-1.945.338-1.945.338s2.495-2.96,2.368-3.32c-.227-.642-1.952.555-1.952.555s1.166-1.679.609-1.952-1.773.761-1.773.761.71-.932.377-1.177-1.773.761-1.773.761.517-1.175-.581-.73-8.793,7.507-8.793,7.507Z" transform="translate(-500.671 -1017.136)" fill="#f9b384"/>
            <g id="Group_8626" data-name="Group 8626" transform="translate(7.068 0.704)">
              <path id="Path_44698" data-name="Path 44698" d="M573.23,1048.7a.126.126,0,0,1-.086-.033,5.762,5.762,0,0,0-2.743-1.59.127.127,0,1,1,.075-.242,5.962,5.962,0,0,1,2.839,1.645.127.127,0,0,1-.086.22Z" transform="translate(-570.312 -1044.52)" fill="#e28b6d"/>
              <path id="Path_44699" data-name="Path 44699" d="M579.294,1076.3h-.018a.127.127,0,0,1-.108-.143,2.128,2.128,0,0,1,.85-1.687,1.646,1.646,0,0,1,1.483.066.127.127,0,1,1-.1.233,1.416,1.416,0,0,0-1.258-.078,1.938,1.938,0,0,0-.723,1.5A.127.127,0,0,1,579.294,1076.3Z" transform="translate(-578.268 -1069.218)" fill="#e28b6d"/>
              <path id="Path_44700" data-name="Path 44700" d="M576.377,1025.809a.127.127,0,0,1-.087-.219l1.576-1.485a.127.127,0,1,1,.174.184l-1.576,1.485A.125.125,0,0,1,576.377,1025.809Z" transform="translate(-575.647 -1024.07)" fill="#e28b6d"/>
              <path id="Path_44701" data-name="Path 44701" d="M590.752,1030a.127.127,0,0,1-.092-.215l1.514-1.577a.127.127,0,0,1,.183.176l-1.514,1.577A.127.127,0,0,1,590.752,1030Z" transform="translate(-588.563 -1027.749)" fill="#e28b6d"/>
              <path id="Path_44702" data-name="Path 44702" d="M605.439,1041.431a.127.127,0,0,1-.093-.213l1.188-1.274a.127.127,0,1,1,.186.173l-1.188,1.274A.127.127,0,0,1,605.439,1041.431Z" transform="translate(-601.76 -1038.296)" fill="#e28b6d"/>
            </g>
          </g>
          <g id="Group_8628" data-name="Group 8628" transform="translate(0 6.426)">
            <path id="Path_44703" data-name="Path 44703" d="M581.75,1211.592l-22.963.888-2.537-20.933s7.687-7.291,10.645-9.976l4.993-.256C587.379,1188.356,584.842,1197.151,581.75,1211.592Z" transform="translate(-536.471 -1170.854)" fill="#137cf5"/>
            <path id="Path_44704" data-name="Path 44704" d="M710.329,1181.315s17.723,1.516,23.31,13.658c5.467,11.881-17,16.112-17,16.112Z" transform="translate(-674.912 -1170.854)" fill="#137cf5"/>
            <path id="Path_44705" data-name="Path 44705" d="M376.523,1091.308l7.324-8.912L377,1078.245a89.312,89.312,0,0,0-13.063,11.581,9.667,9.667,0,0,0-2.247,3.884,8.358,8.358,0,0,0-.215,3.647h0a7.041,7.041,0,0,0,6.222,5.895c2.79.327,13.448-.507,22.074-3.045l2.537-9.793C391,1089.674,381.314,1089.546,376.523,1091.308Z" transform="translate(-361.364 -1078.245)" fill="#137cf5"/>
          </g>
          <g id="Group_8629" data-name="Group 8629" transform="translate(3.743 9.374)" opacity="0.8">
            <path id="Path_44706" data-name="Path 44706" d="M779.237,1197.839l.115-.026-.241-.14a38.428,38.428,0,0,1-3.96.764c-.794.1-3.446.271-4.221-1.5a2.769,2.769,0,0,1,.342-2.543l-.19-.054a2.938,2.938,0,0,0-.327,2.674c.828,1.888,3.591,1.709,4.418,1.609A39.236,39.236,0,0,0,779.237,1197.839Z" transform="translate(-732.772 -1185.508)" fill="#fff"/>
            <path id="Path_44707" data-name="Path 44707" d="M886.887,1358.481a5.884,5.884,0,0,0-2.641-.579,3.706,3.706,0,0,0-3.077,3.556,5.577,5.577,0,0,0,1.312,3.661l.162-.1a5.394,5.394,0,0,1-1.283-3.55,3.511,3.511,0,0,1,2.9-3.375,5.675,5.675,0,0,1,2.554.567c.308.119.622.239.941.341.016-.061.032-.123.047-.185C887.5,1358.715,887.189,1358.6,886.887,1358.481Z" transform="translate(-832.153 -1332.455)" fill="#fff"/>
            <path id="Path_44708" data-name="Path 44708" d="M418.546,1295.97a5.286,5.286,0,0,0-4.716-.671,8.139,8.139,0,0,0-4.123,2.441c.065.021.129.045.2.064a7.981,7.981,0,0,1,3.976-2.321,5.1,5.1,0,0,1,4.547.633,4.131,4.131,0,0,1,1.118,1.54l.2-.022A4.351,4.351,0,0,0,418.546,1295.97Z" transform="translate(-408.544 -1275.996)" fill="#fff"/>
            <path id="Path_44709" data-name="Path 44709" d="M398.243,1114.677a22.954,22.954,0,0,0,5.962-2.313,6.516,6.516,0,0,0,2.061-1.684,2.893,2.893,0,0,0,.53-2.576,2.013,2.013,0,0,0-.516-.814l-.146.12a1.836,1.836,0,0,1,.482.754,2.7,2.7,0,0,1-.5,2.4,6.337,6.337,0,0,1-2,1.632,22.485,22.485,0,0,1-5.619,2.222Z" transform="translate(-398.243 -1107.289)" fill="#fff"/>
          </g>
          <g id="Group_8631" data-name="Group 8631" transform="translate(22.778)">
            <path id="Path_44710" data-name="Path 44710" d="M669.581,1132.613l0,.325-.051,5.047-.006.547a3.143,3.143,0,0,1-6.286,0l-.061-6.237Z" transform="translate(-655.32 -1120.38)" fill="#f9b384"/>
            <path id="Path_44711" data-name="Path 44711" d="M690.765,1138.662l-.051,5.047a8,8,0,0,1-3.96-4.179Z" transform="translate(-676.508 -1126.104)" fill="#102048"/>
            <path id="Path_44712" data-name="Path 44712" d="M664.949,1047.964c1.005,1.206,3.941,8.042.965,10.374-3.348,2.625-8.444-1.689-8.444-1.689l-.684-7.962,4.423-1.166Z" transform="translate(-649.582 -1044.214)" fill="#f9b384"/>
            <path id="Path_44713" data-name="Path 44713" d="M590.752,1047.559s-9.811,5.117-1.811,19.867a4.018,4.018,0,0,0,5.25,1.8h0a3.979,3.979,0,0,0,1.745-5.557c-1.309-2.325-2.572-5.318-2.032-7.545Z" transform="translate(-585.801 -1044.247)" fill="#102048"/>
            <circle id="Ellipse_563" data-name="Ellipse 563" cx="2.654" cy="2.654" r="2.654" transform="translate(2.124 5.734) rotate(-45)" fill="#fbc343"/>
            <path id="Path_44714" data-name="Path 44714" d="M632.468,1023.853c-.287-1.656-.461-2.791,1.212-3.644,0,0,5.9,1.072,7.023-1.153s-.59-5.737-4.182-3.3c-9.195-1.8-10.428,6.809-7.64,9.677l2.752-.422A1,1,0,0,0,632.468,1023.853Z" transform="translate(-623.326 -1014.931)" fill="#102048"/>
            <g id="Group_8630" data-name="Group 8630" transform="translate(11.865 5.902)">
              <circle id="Ellipse_564" data-name="Ellipse 564" cx="0.392" cy="0.392" r="0.392" transform="translate(1.451 2.633)" fill="#102048"/>
              <circle id="Ellipse_565" data-name="Ellipse 565" cx="0.392" cy="0.392" r="0.392" transform="translate(4.105 1.326)" fill="#102048"/>
              <path id="Path_44715" data-name="Path 44715" d="M736.776,1098.752a.111.111,0,0,1-.08-.187c.157-.166.329-.4.257-.567s-.393-.251-.539-.251c-.313,0-.463-.556-.49-.668a.111.111,0,1,1,.216-.052c.057.235.186.5.274.5.15,0,.608.071.743.385.1.224,0,.5-.3.807A.111.111,0,0,1,736.776,1098.752Z" transform="translate(-732.551 -1094.521)" fill="#102048"/>
              <path id="Path_44716" data-name="Path 44716" d="M729.32,1125.12a.109.109,0,0,1-.062-.019,1.484,1.484,0,0,0-1.491-.076.111.111,0,0,1-.111-.193,1.687,1.687,0,0,1,1.726.085.111.111,0,0,1-.062.2Z" transform="translate(-725.075 -1119.4)" fill="#102048"/>
              <path id="Path_44717" data-name="Path 44717" d="M704.381,1084.535c.223.42-.166.5-.621.746s-.922.33-1.028.13.176-.559.632-.8S704.209,1084.21,704.381,1084.535Z" transform="translate(-702.71 -1083.208)" fill="#102048"/>
              <path id="Path_44718" data-name="Path 44718" d="M735.442,1073.654c.1.375.378.211.784.1s.735-.31.688-.489-.414-.237-.821-.131S735.366,1073.364,735.442,1073.654Z" transform="translate(-732.11 -1073.085)" fill="#102048"/>
            </g>
            <circle id="Ellipse_566" data-name="Ellipse 566" cx="1.156" cy="1.156" r="1.156" transform="matrix(0.735, -0.678, 0.678, 0.735, 10.265, 10.691)" fill="#eb5d60" opacity="0.4"/>
            <ellipse id="Ellipse_567" data-name="Ellipse 567" cx="1.566" cy="1.779" rx="1.566" ry="1.779" transform="matrix(0.611, -0.792, 0.792, 0.611, 5.144, 10.913)" fill="#f9b384"/>
            <path id="Path_44719" data-name="Path 44719" d="M653.984,1115.242a.111.111,0,0,1-.111-.111.973.973,0,0,0-.427-.81.783.783,0,0,0-.73-.1.111.111,0,0,1-.084-.205,1,1,0,0,1,.937.118,1.194,1.194,0,0,1,.525.995A.111.111,0,0,1,653.984,1115.242Z" transform="translate(-645.788 -1103.901)" fill="#102048"/>
          </g>
          <g id="Group_8632" data-name="Group 8632" transform="translate(11.06 19.402)">
            <rect id="Rectangle_419" data-name="Rectangle 419" width="5.901" height="0.254" transform="translate(0 4.333) rotate(-47.248)" fill="#102048"/>
            <path id="Path_44720" data-name="Path 44720" d="M787.21,1341.764l-.074-.243c2.916-.889,5.746-1.952,8.311-5.159l.2.158C793.035,1339.784,790.166,1340.863,787.21,1341.764Z" transform="translate(-754.983 -1323.142)" fill="#102048"/>
          </g>
        </g>
        <g id="Group_8636" data-name="Group 8636" transform="translate(18.638 28.199)">
          <g id="Group_8634" data-name="Group 8634">
            <path id="Path_44721" data-name="Path 44721" d="M571.422,1292.776H546.615a1.685,1.685,0,0,0-1.615,1.748v17.711a1.685,1.685,0,0,0,1.615,1.748h24.807a1.685,1.685,0,0,0,1.615-1.748v-17.711A1.685,1.685,0,0,0,571.422,1292.776Z" transform="translate(-545 -1292.776)" fill="#d3dfff"/>
          </g>
          <g id="Group_8635" data-name="Group 8635" transform="translate(12.031 8.976)">
            <path id="Path_44722" data-name="Path 44722" d="M666.839,1381.726a.178.178,0,0,1,.171.185v1.87a.178.178,0,0,1-.171.185H664.22a.178.178,0,0,1-.171-.185v-1.87a.178.178,0,0,1,.171-.185h2.619m0-.508H664.22a.686.686,0,0,0-.678.692v1.87a.686.686,0,0,0,.678.692h2.619a.686.686,0,0,0,.678-.692v-1.87a.686.686,0,0,0-.678-.692Z" transform="translate(-663.542 -1381.218)" fill="#1f3c88"/>
          </g>
        </g>
      </g>
    </g>
    <rect id="Rectangle_420" data-name="Rectangle 420" width="149.566" height="0.507" transform="translate(105 299.374)" fill="#102048"/>
  </g>
</svg>
