<svg id="envelope-Bold" xmlns="http://www.w3.org/2000/svg" width="28" height="28" viewBox="0 0 28 28">
  <rect id="Path" width="28" height="28" fill="rgba(255,255,255,0)"/>
  <path id="envelope-Bold_1_" d="M558.5,2038H546.833a5.84,5.84,0,0,0-5.833,5.833v7a5.84,5.84,0,0,0,5.833,5.833H558.5a5.84,5.84,0,0,0,5.833-5.833v-7A5.84,5.84,0,0,0,558.5,2038Zm-11.667,2.333H558.5a3.493,3.493,0,0,1,3.127,1.958l-7.019,4.678a3.491,3.491,0,0,1-3.883,0l-7.019-4.678A3.493,3.493,0,0,1,546.833,2040.333Zm11.667,14H546.833a3.5,3.5,0,0,1-3.5-3.5v-5.987l6.1,4.065a5.815,5.815,0,0,0,6.471,0l6.1-4.065v5.987A3.5,3.5,0,0,1,558.5,2054.333Z" transform="translate(-538.667 -2033.333)" fill="#113970"/>
</svg>
