<svg id="phone-Bold" xmlns="http://www.w3.org/2000/svg" width="28" height="28" viewBox="0 0 28 28">
  <rect id="Path" width="28" height="28" fill="rgba(255,255,255,0)"/>
  <path id="phone-Bold_1_" d="M756.255,2124.984a4.478,4.478,0,0,0-.1-.445,2.306,2.306,0,0,0-1.849-1.624l-5.053-.841a2.349,2.349,0,0,0-2.223.85c-.068.085-.133.174-.264.319a10.6,10.6,0,0,1-5.636-5.74c.12-.081.236-.167.345-.256a2.349,2.349,0,0,0,.841-2.19l-.783-4.964a2.316,2.316,0,0,0-1.559-1.853,4.612,4.612,0,0,0-.632-.16,5.3,5.3,0,0,0-4.391,1.217,5.575,5.575,0,0,0-1.948,4.4,18.133,18.133,0,0,0,17.635,17.636h.152a5.565,5.565,0,0,0,4.221-1.937A5.33,5.33,0,0,0,756.255,2124.984Zm-3.009,2.884A3.232,3.232,0,0,1,750.7,2129a15.8,15.8,0,0,1-15.366-15.367,3.254,3.254,0,0,1,1.137-2.562,2.949,2.949,0,0,1,1.933-.738,3.057,3.057,0,0,1,.522.047,2.013,2.013,0,0,1,.3.078l.777,4.98c-.058.047-.119.091-.184.135a2.365,2.365,0,0,0-.875,2.922,13.243,13.243,0,0,0,6.887,6.889,2.368,2.368,0,0,0,2.925-.874l.109-.134,5.04.795a2.132,2.132,0,0,1,.048.215A3,3,0,0,1,753.246,2127.868Z" transform="translate(-730.667 -2105.667)" fill="#113970"/>
</svg>
