<svg xmlns="http://www.w3.org/2000/svg" id="discount" width="16.669" height="17.012" viewBox="0 0 16.669 17.012">
    <defs>
        <style>
            .cls-1{fill:#fff}
        </style>
    </defs>
    <g id="Group_46" transform="translate(0 0)">
        <circle id="Ellipse_41" cx=".711" cy=".711" r=".711" class="cls-1" transform="translate(5.363 6.35)"/>
        <circle id="Ellipse_42" cx=".711" cy=".711" r=".711" class="cls-1" transform="translate(9.881 9.237)"/>
        <path id="Path_240" d="M21.375 9.445l-.258-.352a1.11 1.11 0 0 1-.01-1.293l.251-.356a1.11 1.11 0 0 0-.383-1.617l-.383-.206a1.1 1.1 0 0 1-.568-1.161l.073-.429a1.107 1.107 0 0 0-1.046-1.29l-.436-.017a1.111 1.111 0 0 1-1.018-.8l-.122-.418A1.1 1.1 0 0 0 15.972.8l-.4.171a1.1 1.1 0 0 1-1.263-.279l-.29-.324a1.105 1.105 0 0 0-1.659.014l-.286.328a1.108 1.108 0 0 1-1.258.3l-.4-.167a1.11 1.11 0 0 0-1.492.732l-.124.417a1.1 1.1 0 0 1-1 .812l-.436.024A1.107 1.107 0 0 0 6.34 4.136l.08.429a1.105 1.105 0 0 1-.551 1.168l-.38.213a1.106 1.106 0 0 0-.356 1.621l.258.352A1.11 1.11 0 0 1 5.4 9.212l-.251.356a1.11 1.11 0 0 0 .383 1.617l.383.206a1.1 1.1 0 0 1 .568 1.161l-.073.429a1.107 1.107 0 0 0 1.046 1.29l.436.017a1.111 1.111 0 0 1 1.018.8l.122.418a1.1 1.1 0 0 0 1.5.708l.4-.171a1.1 1.1 0 0 1 1.262.279l.289.324a1.1 1.1 0 0 0 1.659-.014l.286-.328a1.108 1.108 0 0 1 1.258-.3l.4.167a1.11 1.11 0 0 0 1.492-.732l.115-.422a1.1 1.1 0 0 1 1-.812l.436-.024a1.107 1.107 0 0 0 1.025-1.307l-.08-.429a1.105 1.105 0 0 1 .551-1.168l.38-.213a1.105 1.105 0 0 0 .37-1.619zm-12.1-2.384a1.715 1.715 0 1 1 1.715 1.715 1.714 1.714 0 0 1-1.715-1.715zm2.046 4.424a.419.419 0 0 1-.589.056.419.419 0 0 1-.056-.589l4.5-5.421a.418.418 0 0 1 .645.533zm4.19.178a1.715 1.715 0 1 1 1.715-1.715 1.714 1.714 0 0 1-1.715 1.714z" class="cls-1" transform="translate(-4.919 0)"/>
    </g>
</svg>
